<svg xmlns="http://www.w3.org/2000/svg" viewBox="0 0 344 96" role="img" aria-labelledby="title desc">
  <title id="title">PDFTools</title>
  <desc id="desc">Logo PDFTools với biểu tượng tài liệu xếp lớp và tia sáng</desc>
  <defs>
    <linearGradient id="background" x1="15" y1="11" x2="84" y2="89" gradientUnits="userSpaceOnUse">
      <stop stop-color="#7772ff"/>
      <stop offset="0.52" stop-color="#4f46e5"/>
      <stop offset="1" stop-color="#312e81"/>
    </linearGradient>
    <linearGradient id="spark" x1="60" y1="56" x2="80" y2="76" gradientUnits="userSpaceOnUse">
      <stop stop-color="#a5f3fc"/>
      <stop offset="1" stop-color="#22d3ee"/>
    </linearGradient>
  </defs>
  <rect x="4" y="4" width="88" height="88" rx="26" fill="url(#background)"/>
  <path d="M23 29a7 7 0 0 1 7-7h25l12 12v35a7 7 0 0 1-7 7H30a7 7 0 0 1-7-7V29Z" fill="#a5f3fc" opacity=".32"/>
  <path d="M31 21a7 7 0 0 1 7-7h21l13 13v36a7 7 0 0 1-7 7H38a7 7 0 0 1-7-7V21Z" fill="#fff"/>
  <path d="M59 14v10a6 6 0 0 0 6 6h7" fill="#c7d2fe"/>
  <path d="M41 38h21M41 47h17M41 56h12" fill="none" stroke="#4f46e5" stroke-width="4" stroke-linecap="round"/>
  <path d="m67 54 2.5 6.5L76 63l-6.5 2.5L67 72l-2.5-6.5L58 63l6.5-2.5L67 54Z" fill="url(#spark)" stroke="#312e81" stroke-width="1.7" stroke-linejoin="round"/>
  <text x="112" y="61" fill="#15162b" font-family="-apple-system, BlinkMacSystemFont, 'Segoe UI', Arial, sans-serif" font-size="48" letter-spacing="-2">
    <tspan font-weight="850">PDF</tspan><tspan font-weight="700">Tools</tspan>
  </text>
</svg>
